<svg width="253" height="57" viewBox="0 0 253 57" fill="none" xmlns="http://www.w3.org/2000/svg">
<g clip-path="url(#clip0)">
<path d="M20.1175 55H24.9815V6.616H41.1415V2.2H4.0215V6.616H20.1175V55ZM62.2155 56.024C65.6288 56.024 68.7008 55.288 71.4315 53.816C74.1835 52.344 76.3595 50.296 77.9595 47.672C79.5595 45.048 80.3595 42.0293 80.3595 38.616C80.3595 35.1813 79.5595 32.1627 77.9595 29.56C76.3595 26.936 74.1835 24.888 71.4315 23.416C68.7008 21.944 65.6288 21.208 62.2155 21.208C58.8022 21.208 55.7195 21.944 52.9675 23.416C50.2368 24.888 48.0715 26.936 46.4715 29.56C44.8715 32.1627 44.0715 35.1813 44.0715 38.616C44.0715 42.0293 44.8715 45.048 46.4715 47.672C48.0715 50.296 50.2368 52.344 52.9675 53.816C55.7195 55.288 58.8022 56.024 62.2155 56.024ZM62.2155 51.864C59.6555 51.864 57.3728 51.2987 55.3675 50.168C53.3622 49.0373 51.7835 47.48 50.6315 45.496C49.4795 43.4907 48.9035 41.1973 48.9035 38.616C48.9035 36.0347 49.4795 33.752 50.6315 31.768C51.7835 29.7627 53.3622 28.1947 55.3675 27.064C57.3728 25.9333 59.6555 25.368 62.2155 25.368C64.7755 25.368 67.0582 25.9333 69.0635 27.064C71.0688 28.1947 72.6475 29.7627 73.7995 31.768C74.9515 33.752 75.5275 36.0347 75.5275 38.616C75.5275 41.1973 74.9515 43.4907 73.7995 45.496C72.6475 47.48 71.0688 49.0373 69.0635 50.168C67.0582 51.2987 64.7755 51.864 62.2155 51.864ZM107.278 56.024C110.691 56.024 113.763 55.288 116.494 53.816C119.246 52.344 121.422 50.296 123.022 47.672C124.622 45.048 125.422 42.0293 125.422 38.616C125.422 35.1813 124.622 32.1627 123.022 29.56C121.422 26.936 119.246 24.888 116.494 23.416C113.763 21.944 110.691 21.208 107.278 21.208C103.865 21.208 100.782 21.944 98.03 23.416C95.2993 24.888 93.134 26.936 91.534 29.56C89.934 32.1627 89.134 35.1813 89.134 38.616C89.134 42.0293 89.934 45.048 91.534 47.672C93.134 50.296 95.2993 52.344 98.03 53.816C100.782 55.288 103.865 56.024 107.278 56.024ZM107.278 51.864C104.718 51.864 102.435 51.2987 100.43 50.168C98.4247 49.0373 96.846 47.48 95.694 45.496C94.542 43.4907 93.966 41.1973 93.966 38.616C93.966 36.0347 94.542 33.752 95.694 31.768C96.846 29.7627 98.4247 28.1947 100.43 27.064C102.435 25.9333 104.718 25.368 107.278 25.368C109.838 25.368 112.121 25.9333 114.126 27.064C116.131 28.1947 117.71 29.7627 118.862 31.768C120.014 33.752 120.59 36.0347 120.59 38.616C120.59 41.1973 120.014 43.4907 118.862 45.496C117.71 47.48 116.131 49.0373 114.126 50.168C112.121 51.2987 109.838 51.864 107.278 51.864ZM152.341 56.024C155.754 56.024 158.826 55.288 161.557 53.816C164.309 52.344 166.485 50.296 168.085 47.672C169.685 45.048 170.485 42.0293 170.485 38.616C170.485 35.1813 169.685 32.1627 168.085 29.56C166.485 26.936 164.309 24.888 161.557 23.416C158.826 21.944 155.754 21.208 152.341 21.208C148.927 21.208 145.845 21.944 143.093 23.416C140.362 24.888 138.197 26.936 136.597 29.56C134.997 32.1627 134.197 35.1813 134.197 38.616C134.197 42.0293 134.997 45.048 136.597 47.672C138.197 50.296 140.362 52.344 143.093 53.816C145.845 55.288 148.927 56.024 152.341 56.024ZM152.341 51.864C149.781 51.864 147.498 51.2987 145.493 50.168C143.487 49.0373 141.909 47.48 140.757 45.496C139.605 43.4907 139.029 41.1973 139.029 38.616C139.029 36.0347 139.605 33.752 140.757 31.768C141.909 29.7627 143.487 28.1947 145.493 27.064C147.498 25.9333 149.781 25.368 152.341 25.368C154.901 25.368 157.183 25.9333 159.189 27.064C161.194 28.1947 162.773 29.7627 163.925 31.768C165.077 33.752 165.653 36.0347 165.653 38.616C165.653 41.1973 165.077 43.4907 163.925 45.496C162.773 47.48 161.194 49.0373 159.189 50.168C157.183 51.2987 154.901 51.864 152.341 51.864ZM195.739 56.024C198.64 56.024 201.275 55.32 203.643 53.912C206.032 52.504 207.92 50.5627 209.307 48.088V55H213.979V-0.0720024H209.307V29.048C207.963 26.5947 206.107 24.6747 203.739 23.288C201.371 21.9013 198.726 21.208 195.803 21.208C192.667 21.208 189.862 21.9653 187.387 23.48C184.934 24.9733 182.992 27.032 181.563 29.656C180.134 32.28 179.419 35.2667 179.419 38.616C179.419 41.9867 180.134 44.984 181.563 47.608C183.014 50.232 184.966 52.2907 187.419 53.784C189.894 55.2773 192.667 56.024 195.739 56.024ZM196.859 51.96C194.406 51.96 192.23 51.384 190.331 50.232C188.432 49.08 186.939 47.5013 185.851 45.496C184.784 43.4907 184.251 41.208 184.251 38.648C184.251 36.0453 184.795 33.7413 185.883 31.736C186.971 29.7093 188.464 28.1307 190.363 27C192.262 25.848 194.438 25.272 196.891 25.272C199.344 25.272 201.51 25.848 203.387 27C205.286 28.1307 206.779 29.7093 207.867 31.736C208.955 33.7413 209.499 36.0453 209.499 38.648C209.499 41.2293 208.955 43.5227 207.867 45.528C206.779 47.5333 205.286 49.112 203.387 50.264C201.488 51.3947 199.312 51.96 196.859 51.96ZM236.267 56.024C239.83 56.024 242.731 55.064 244.971 53.144C247.232 51.224 248.363 48.6213 248.363 45.336C248.363 43.416 247.968 41.9013 247.179 40.792C246.39 39.6613 245.28 38.7333 243.851 38.008C242.422 37.2613 240.758 36.536 238.859 35.832C237.536 35.32 236.299 34.808 235.147 34.296C234.016 33.784 233.099 33.176 232.395 32.472C231.691 31.7467 231.339 30.8293 231.339 29.72C231.339 28.2053 231.894 26.9787 233.003 26.04C234.134 25.1013 235.595 24.632 237.387 24.632C240.31 24.632 242.752 25.9227 244.715 28.504L246.859 25.784C245.579 24.3333 244.128 23.2133 242.507 22.424C240.907 21.6347 239.19 21.24 237.355 21.24C235.35 21.24 233.558 21.624 231.979 22.392C230.4 23.1387 229.163 24.1733 228.267 25.496C227.371 26.7973 226.923 28.2907 226.923 29.976C226.923 31.64 227.339 33.016 228.171 34.104C229.024 35.1707 230.102 36.056 231.403 36.76C232.704 37.464 234.048 38.0933 235.435 38.648C237.206 39.3307 238.699 39.9387 239.915 40.472C241.131 41.0053 242.048 41.6453 242.667 42.392C243.307 43.1387 243.627 44.1733 243.627 45.496C243.627 47.6293 242.902 49.3147 241.451 50.552C240 51.7893 238.262 52.408 236.235 52.408C234.23 52.408 232.406 51.832 230.763 50.68C229.12 49.5067 227.787 47.8747 226.763 45.784L224.267 48.472C225.419 50.8827 227.03 52.7493 229.099 54.072C231.168 55.3733 233.558 56.024 236.267 56.024Z" fill="black"/>
</g>
<defs>
<clipPath id="clip0">
<rect width="253" height="57" fill="white"/>
</clipPath>
</defs>
</svg>
