<svg width="1600" height="240" viewBox="0 0 1600 240" fill="none" xmlns="http://www.w3.org/2000/svg">
<g clip-path="url(#clip0)">
<rect y="2" width="235" height="60.2564" rx="30.1282" fill="#219EBC"/>
<rect x="89.913" y="74.3077" width="57.2174" height="162.692" rx="28.6087" fill="#219EBC"/>
<rect x="177.783" y="74.3077" width="57.2174" height="90.3846" rx="28.6087" fill="#E69541"/>
<rect y="146.615" width="57.2174" height="90.3846" rx="28.6087" fill="#7C73AE"/>
<ellipse cx="28.6087" cy="102.427" rx="28.6087" ry="28.1197" fill="#DD7155"/>
<ellipse cx="206.391" cy="208.88" rx="28.6087" ry="28.1197" fill="#6AAC46"/>
<path d="M344.99 237C340.737 237 337.16 235.55 334.26 232.65C331.36 229.75 329.91 226.173 329.91 221.92V38.35H267.27C263.21 38.35 259.827 37.0933 257.12 34.58C254.607 31.8733 253.35 28.49 253.35 24.43C253.35 20.37 254.607 17.0833 257.12 14.57C259.827 11.8633 263.21 10.51 267.27 10.51H422.42C426.48 10.51 429.767 11.8633 432.28 14.57C434.987 17.0833 436.34 20.37 436.34 24.43C436.34 28.49 434.987 31.8733 432.28 34.58C429.767 37.0933 426.48 38.35 422.42 38.35H360.07V221.92C360.07 226.173 358.62 229.75 355.72 232.65C352.82 235.55 349.243 237 344.99 237ZM489.335 238.16C475.222 238.16 462.559 234.68 451.345 227.72C440.132 220.567 431.239 210.997 424.665 199.01C418.285 186.83 415.095 173.103 415.095 157.83C415.095 142.557 418.575 128.83 425.535 116.65C432.689 104.47 442.259 94.9 454.245 87.94C466.425 80.7867 480.055 77.21 495.135 77.21C510.215 77.21 523.749 80.7867 535.735 87.94C547.722 94.9 557.195 104.47 564.155 116.65C571.309 128.83 574.885 142.557 574.885 157.83V222.5C574.885 226.753 573.435 230.33 570.535 233.23C567.829 235.937 564.349 237.29 560.095 237.29C555.842 237.29 552.265 235.937 549.365 233.23C546.659 230.33 545.305 226.753 545.305 222.5V211.77C538.539 219.89 530.322 226.367 520.655 231.2C511.182 235.84 500.742 238.16 489.335 238.16ZM495.135 212.06C504.995 212.06 513.792 209.74 521.525 205.1C529.259 200.267 535.349 193.79 539.795 185.67C544.242 177.357 546.465 168.077 546.465 157.83C546.465 147.39 544.242 138.11 539.795 129.99C535.349 121.677 529.259 115.2 521.525 110.56C513.792 105.727 504.995 103.31 495.135 103.31C485.469 103.31 476.672 105.727 468.745 110.56C461.012 115.2 454.825 121.677 450.185 129.99C445.739 138.11 443.515 147.39 443.515 157.83C443.515 168.077 445.739 177.357 450.185 185.67C454.825 193.79 461.012 200.267 468.745 205.1C476.672 209.74 485.469 212.06 495.135 212.06ZM676.619 238.16C663.085 238.16 650.519 236.13 638.919 232.07C627.512 227.817 618.619 222.5 612.239 216.12C609.339 213.027 608.082 209.547 608.469 205.68C609.049 201.62 610.982 198.333 614.269 195.82C618.135 192.727 621.905 191.47 625.579 192.05C629.445 192.437 632.732 194.08 635.439 196.98C638.725 200.653 643.945 204.133 651.099 207.42C658.445 210.513 666.565 212.06 675.459 212.06C686.672 212.06 695.179 210.223 700.979 206.55C706.972 202.877 710.065 198.14 710.259 192.34C710.452 186.54 707.649 181.513 701.849 177.26C696.242 173.007 685.899 169.527 670.819 166.82C651.292 162.953 637.082 157.153 628.189 149.42C619.489 141.687 615.139 132.213 615.139 121C615.139 111.14 618.039 103.02 623.839 96.64C629.639 90.0667 637.082 85.2333 646.169 82.14C655.255 78.8533 664.729 77.21 674.589 77.21C687.349 77.21 698.659 79.24 708.519 83.3C718.379 87.36 726.209 92.9667 732.009 100.12C734.715 103.213 735.972 106.5 735.779 109.98C735.585 113.267 733.942 116.07 730.849 118.39C727.755 120.517 724.082 121.193 719.829 120.42C715.575 119.647 711.999 117.907 709.099 115.2C704.265 110.56 699.045 107.37 693.439 105.63C687.832 103.89 681.355 103.02 674.009 103.02C665.502 103.02 658.252 104.47 652.259 107.37C646.459 110.27 643.559 114.523 643.559 120.13C643.559 123.61 644.429 126.8 646.169 129.7C648.102 132.407 651.775 134.92 657.189 137.24C662.602 139.367 670.529 141.493 680.969 143.62C702.815 147.873 717.895 153.963 726.209 161.89C734.715 169.623 738.969 179.193 738.969 190.6C738.969 199.493 736.552 207.517 731.719 214.67C727.079 221.823 720.119 227.527 710.839 231.78C701.752 236.033 690.345 238.16 676.619 238.16ZM790.58 237C786.326 237 782.846 235.743 780.14 233.23C777.626 230.523 776.37 227.043 776.37 222.79V24.72C776.37 20.4667 777.626 17.0833 780.14 14.57C782.846 11.8633 786.326 10.51 790.58 10.51C794.833 10.51 798.216 11.8633 800.73 14.57C803.436 17.0833 804.79 20.4667 804.79 24.72V142.75L875.26 79.82C878.16 77.1133 881.35 75.8567 884.83 76.05C888.503 76.2433 891.596 77.79 894.11 80.69C896.816 83.59 898.073 86.78 897.88 90.26C897.686 93.74 896.14 96.8333 893.24 99.54L839.88 147.1L896.14 216.12C898.653 219.213 899.716 222.597 899.33 226.27C899.136 229.75 897.396 232.843 894.11 235.55C891.016 238.063 887.536 239.127 883.67 238.74C879.996 238.547 876.903 236.903 874.39 233.81L819.29 165.66L804.79 178.42V222.79C804.79 227.043 803.436 230.523 800.73 233.23C798.216 235.743 794.833 237 790.58 237ZM985.312 237C981.059 237 977.482 235.55 974.582 232.65C971.682 229.75 970.232 226.173 970.232 221.92V38.35H907.592C903.532 38.35 900.149 37.0933 897.442 34.58C894.929 31.8733 893.672 28.49 893.672 24.43C893.672 20.37 894.929 17.0833 897.442 14.57C900.149 11.8633 903.532 10.51 907.592 10.51H1062.74C1066.8 10.51 1070.09 11.8633 1072.6 14.57C1075.31 17.0833 1076.66 20.37 1076.66 24.43C1076.66 28.49 1075.31 31.8733 1072.6 34.58C1070.09 37.0933 1066.8 38.35 1062.74 38.35H1000.39V221.92C1000.39 226.173 998.942 229.75 996.042 232.65C993.142 235.55 989.566 237 985.312 237ZM1129.66 238.16C1115.54 238.16 1102.88 234.68 1091.67 227.72C1080.45 220.567 1071.56 210.997 1064.99 199.01C1058.61 186.83 1055.42 173.103 1055.42 157.83C1055.42 142.557 1058.9 128.83 1065.86 116.65C1073.01 104.47 1082.58 94.9 1094.57 87.94C1106.75 80.7867 1120.38 77.21 1135.46 77.21C1150.54 77.21 1164.07 80.7867 1176.06 87.94C1188.04 94.9 1197.52 104.47 1204.48 116.65C1211.63 128.83 1215.21 142.557 1215.21 157.83V222.5C1215.21 226.753 1213.76 230.33 1210.86 233.23C1208.15 235.937 1204.67 237.29 1200.42 237.29C1196.16 237.29 1192.59 235.937 1189.69 233.23C1186.98 230.33 1185.63 226.753 1185.63 222.5V211.77C1178.86 219.89 1170.64 226.367 1160.98 231.2C1151.5 235.84 1141.06 238.16 1129.66 238.16ZM1135.46 212.06C1145.32 212.06 1154.11 209.74 1161.85 205.1C1169.58 200.267 1175.67 193.79 1180.12 185.67C1184.56 177.357 1186.79 168.077 1186.79 157.83C1186.79 147.39 1184.56 138.11 1180.12 129.99C1175.67 121.677 1169.58 115.2 1161.85 110.56C1154.11 105.727 1145.32 103.31 1135.46 103.31C1125.79 103.31 1116.99 105.727 1109.07 110.56C1101.33 115.2 1095.15 121.677 1090.51 129.99C1086.06 138.11 1083.84 147.39 1083.84 157.83C1083.84 168.077 1086.06 177.357 1090.51 185.67C1095.15 193.79 1101.33 200.267 1109.07 205.1C1116.99 209.74 1125.79 212.06 1135.46 212.06ZM1338.98 238.16C1323.9 238.16 1310.37 234.68 1298.38 227.72C1286.39 220.567 1276.92 210.9 1269.96 198.72C1263 186.54 1259.42 172.813 1259.23 157.54V25.3C1259.23 20.8533 1260.58 17.2767 1263.29 14.57C1266.19 11.8633 1269.77 10.51 1274.02 10.51C1278.47 10.51 1282.04 11.8633 1284.75 14.57C1287.46 17.2767 1288.81 20.8533 1288.81 25.3V103.6C1295.58 95.48 1303.7 89.1 1313.17 84.46C1322.84 79.6267 1333.37 77.21 1344.78 77.21C1358.89 77.21 1371.56 80.7867 1382.77 87.94C1393.98 94.9 1402.78 104.47 1409.16 116.65C1415.73 128.637 1419.02 142.267 1419.02 157.54C1419.02 172.813 1415.44 186.54 1408.29 198.72C1401.33 210.9 1391.86 220.567 1379.87 227.72C1367.88 234.68 1354.25 238.16 1338.98 238.16ZM1338.98 212.06C1348.84 212.06 1357.64 209.74 1365.37 205.1C1373.1 200.267 1379.19 193.693 1383.64 185.38C1388.28 177.067 1390.6 167.787 1390.6 157.54C1390.6 147.1 1388.28 137.82 1383.64 129.7C1379.19 121.58 1373.1 115.2 1365.37 110.56C1357.64 105.727 1348.84 103.31 1338.98 103.31C1329.31 103.31 1320.52 105.727 1312.59 110.56C1304.86 115.2 1298.77 121.58 1294.32 129.7C1289.87 137.82 1287.65 147.1 1287.65 157.54C1287.65 167.787 1289.87 177.067 1294.32 185.38C1298.77 193.693 1304.86 200.267 1312.59 205.1C1320.52 209.74 1329.31 212.06 1338.98 212.06ZM1520.85 238.16C1507.31 238.16 1494.75 236.13 1483.15 232.07C1471.74 227.817 1462.85 222.5 1456.47 216.12C1453.57 213.027 1452.31 209.547 1452.7 205.68C1453.28 201.62 1455.21 198.333 1458.5 195.82C1462.36 192.727 1466.13 191.47 1469.81 192.05C1473.67 192.437 1476.96 194.08 1479.67 196.98C1482.95 200.653 1488.17 204.133 1495.33 207.42C1502.67 210.513 1510.79 212.06 1519.69 212.06C1530.9 212.06 1539.41 210.223 1545.21 206.55C1551.2 202.877 1554.29 198.14 1554.49 192.34C1554.68 186.54 1551.88 181.513 1546.08 177.26C1540.47 173.007 1530.13 169.527 1515.05 166.82C1495.52 162.953 1481.31 157.153 1472.42 149.42C1463.72 141.687 1459.37 132.213 1459.37 121C1459.37 111.14 1462.27 103.02 1468.07 96.64C1473.87 90.0667 1481.31 85.2333 1490.4 82.14C1499.48 78.8533 1508.96 77.21 1518.82 77.21C1531.58 77.21 1542.89 79.24 1552.75 83.3C1562.61 87.36 1570.44 92.9667 1576.24 100.12C1578.94 103.213 1580.2 106.5 1580.01 109.98C1579.81 113.267 1578.17 116.07 1575.08 118.39C1571.98 120.517 1568.31 121.193 1564.06 120.42C1559.8 119.647 1556.23 117.907 1553.33 115.2C1548.49 110.56 1543.27 107.37 1537.67 105.63C1532.06 103.89 1525.58 103.02 1518.24 103.02C1509.73 103.02 1502.48 104.47 1496.49 107.37C1490.69 110.27 1487.79 114.523 1487.79 120.13C1487.79 123.61 1488.66 126.8 1490.4 129.7C1492.33 132.407 1496 134.92 1501.42 137.24C1506.83 139.367 1514.76 141.493 1525.2 143.62C1547.04 147.873 1562.12 153.963 1570.44 161.89C1578.94 169.623 1583.2 179.193 1583.2 190.6C1583.2 199.493 1580.78 207.517 1575.95 214.67C1571.31 221.823 1564.35 227.527 1555.07 231.78C1545.98 236.033 1534.57 238.16 1520.85 238.16Z" fill="#219EBC"/>
</g>
<defs>
<clipPath id="clip0">
<rect width="1600" height="240" fill="white"/>
</clipPath>
</defs>
</svg>
